<svg width="22" height="22" viewBox="0 0 22 22" fill="none" xmlns="http://www.w3.org/2000/svg">
<g id="add_FILL0_wght500_GRAD0_opsz24 1">
<path id="Vector" d="M9.98661 12.0122H5.59873C5.31452 12.0122 5.07467 11.9144 4.87917 11.7189C4.68368 11.5234 4.58594 11.2836 4.58594 10.9994C4.58594 10.7152 4.68368 10.4753 4.87917 10.2798C5.07467 10.0844 5.31452 9.98661 5.59873 9.98661H9.98661V5.59873C9.98661 5.31452 10.0844 5.07467 10.2798 4.87917C10.4753 4.68368 10.7152 4.58594 10.9994 4.58594C11.2836 4.58594 11.5234 4.68368 11.7189 4.87917C11.9144 5.07467 12.0122 5.31452 12.0122 5.59873V9.98661H16.4C16.6842 9.98661 16.9241 10.0844 17.1196 10.2798C17.3151 10.4753 17.4128 10.7152 17.4128 10.9994C17.4128 11.2836 17.3151 11.5234 17.1196 11.7189C16.9241 11.9144 16.6842 12.0122 16.4 12.0122H12.0122V16.4C12.0122 16.6842 11.9144 16.9241 11.7189 17.1196C11.5234 17.3151 11.2836 17.4128 10.9994 17.4128C10.7152 17.4128 10.4753 17.3151 10.2798 17.1196C10.0844 16.9241 9.98661 16.6842 9.98661 16.4V12.0122Z" fill="#5534DA"/>
</g>
</svg>
