<svg width="44" height="22" viewBox="0 0 44 22" fill="none" xmlns="http://www.w3.org/2000/svg">
<rect width="44" height="22" rx="4" fill="#F7DBF0"/>
<path d="M8.21289 6.19922V7.85156H10.5332V6.19922H11.4004V11.0508H7.3457V6.19922H8.21289ZM8.21289 10.2891H10.5332V8.58984H8.21289V10.2891ZM8.69336 13.1836V12.4219H15.7129V15.9492H14.8105V13.1836H8.69336ZM12.584 11.7305V5.74219H13.4512V8.25H14.834V5.54297H15.7129V11.7891H14.834V9.01172H13.4512V11.7305H12.584ZM19.7324 6.35156C20.998 6.35742 21.9473 7.21875 22.0996 8.51953H23.2246V5.74219H24.0918V13.0312H23.2246V9.29297H22.0938C21.9238 10.5527 20.9805 11.4023 19.7324 11.3906C18.3379 11.4023 17.3477 10.3652 17.3535 8.88281C17.3477 7.38281 18.3379 6.35742 19.7324 6.35156ZM18.1855 8.88281C18.1738 9.89648 18.8359 10.6055 19.7324 10.6055C20.6172 10.6055 21.2793 9.89648 21.291 8.88281C21.2793 7.875 20.6172 7.14258 19.7324 7.14844C18.8359 7.14258 18.1738 7.875 18.1855 8.88281ZM19.252 15.7266V12.3281H20.166V14.9531H26.4004V15.7266H19.252ZM25.2051 13.3359V5.53125H26.084V13.3359H25.2051ZM36.0215 10.5469V11.3086H28.8262V6.50391H35.916V7.26562H29.7402V10.5469H36.0215ZM27.6074 14.5312V13.7578H37.1465V14.5312H27.6074Z" fill="#D549B6"/>
</svg>
