<svg width="22" height="22" viewBox="0 0 22 22" fill="none" xmlns="http://www.w3.org/2000/svg">
<g id="check_FILL0_wght300_GRAD0_opsz24 1">
<path id="Vector" d="M8.75443 14.2223L16.673 6.30372C16.8094 6.1674 16.9712 6.09776 17.1587 6.09482C17.3461 6.09188 17.5109 6.16152 17.6531 6.30372C17.7953 6.44591 17.8664 6.60926 17.8664 6.79377C17.8664 6.97827 17.7953 7.14162 17.6531 7.28382L9.33438 15.6026C9.16868 15.7683 8.97536 15.8511 8.75443 15.8511C8.53349 15.8511 8.34018 15.7683 8.17447 15.6026L4.34739 11.7755C4.21107 11.6392 4.14378 11.4773 4.14554 11.2898C4.14731 11.1024 4.21929 10.9376 4.36149 10.7954C4.50369 10.6532 4.66704 10.5821 4.85154 10.5821C5.03605 10.5821 5.1994 10.6532 5.34159 10.7954L8.75443 14.2223Z" fill="#787486"/>
</g>
</svg>
