<svg width="33" height="22" viewBox="0 0 33 22" fill="none" xmlns="http://www.w3.org/2000/svg">
<rect width="33" height="22" rx="4" fill="#E7F7DB"/>
<path d="M9.50391 5.91797C11.0625 5.92383 12.1934 6.87305 12.1992 8.22656C12.1934 9.58594 11.0625 10.5234 9.50391 10.5234C7.92773 10.5234 6.79102 9.58594 6.79688 8.22656C6.79102 6.87305 7.92773 5.92383 9.50391 5.91797ZM7.69922 8.22656C7.6875 9.14062 8.45508 9.77344 9.50391 9.77344C10.5352 9.77344 11.3086 9.14062 11.3086 8.22656C11.3086 7.32422 10.5352 6.68555 9.50391 6.69141C8.45508 6.68555 7.6875 7.32422 7.69922 8.22656ZM8.37891 12.1289V11.3906H15.1523V13.8984H9.30469V15.0703H15.5273V15.8086H8.40234V13.207H14.2383V12.1289H8.37891ZM14.2383 10.8867V5.53125H15.1523V10.8867H14.2383ZM25.0664 5.54297V8.69531H26.6367V9.46875H25.0664V13.1953H24.1523V5.54297H25.0664ZM17.3672 11.4375V6.29297H18.2695V8.05078H21.3047V6.29297H22.2188V11.4375H17.3672ZM18.2695 10.6875H21.3047V8.77734H18.2695V10.6875ZM18.5508 15.7266V12.4453H19.4531V14.9531H25.5469V15.7266H18.5508Z" fill="#86D549"/>
</svg>
