<svg width="57" height="22" viewBox="0 0 57 22" fill="none" xmlns="http://www.w3.org/2000/svg">
<rect width="57" height="22" rx="11" fill="#F1EFFD"/>
<circle cx="11" cy="11" r="3" fill="#5534DA"/>
<path d="M23.9004 15H21.2637V6.51562H24.0059C26.4844 6.51562 27.9434 8.10352 27.9434 10.7461C27.9434 13.3945 26.4844 15 23.9004 15ZM22.3184 14.0625H23.8301C25.9102 14.0625 26.9121 12.8027 26.9121 10.7461C26.9121 8.69531 25.9102 7.45312 23.9355 7.45312H22.3184V14.0625ZM31.9629 15.1289C30.2285 15.1348 29.0566 13.8223 29.0566 11.8477C29.0566 9.86133 30.2285 8.55469 31.9629 8.55469C33.6914 8.55469 34.8516 9.86133 34.8457 11.8477C34.8516 13.8223 33.6914 15.1348 31.9629 15.1289ZM30.0645 11.8477C30.0703 13.1191 30.668 14.2383 31.9629 14.2383C33.2461 14.2383 33.8379 13.1191 33.8379 11.8477C33.8379 10.582 33.2461 9.44531 31.9629 9.44531C30.668 9.44531 30.0703 10.582 30.0645 11.8477ZM37.1777 11.1797V15H36.1699V8.63672H37.1426V9.63281H37.2246C37.5234 8.98242 38.1211 8.55469 39.0879 8.55469C40.377 8.55469 41.2383 9.33984 41.2324 10.957V15H40.2246V11.0273C40.2246 10.043 39.6855 9.45703 38.7832 9.45703C37.8574 9.45703 37.1777 10.0781 37.1777 11.1797ZM45.5215 15.1289C43.6816 15.1348 42.5449 13.8223 42.5449 11.8711C42.5449 9.91406 43.6992 8.55469 45.4277 8.55469C46.7637 8.55469 48.1758 9.375 48.1699 11.7305V12.1523H43.5527C43.6055 13.5 44.3906 14.2383 45.5215 14.2383C46.2832 14.2383 46.7637 13.9043 46.998 13.5117H48.0762C47.7773 14.4785 46.834 15.1348 45.5215 15.1289ZM43.5586 11.2969H47.1504C47.1445 10.2363 46.4766 9.44531 45.4277 9.44531C44.3262 9.44531 43.6289 10.3125 43.5586 11.2969Z" fill="#5534DA"/>
</svg>
