<svg width="94" height="22" viewBox="0 0 94 22" fill="none" xmlns="http://www.w3.org/2000/svg">
<rect width="94" height="22" rx="11" fill="#F1EFFD"/>
<circle cx="11" cy="11" r="3" fill="#5534DA"/>
<path d="M28.1445 10.7578C28.1504 13.4414 26.5684 15.1172 24.3945 15.1172C22.2148 15.1172 20.6387 13.4414 20.6445 10.7578C20.6387 8.07422 22.2148 6.39844 24.3945 6.39844C26.5684 6.39844 28.1504 8.07422 28.1445 10.7578ZM21.6641 10.7578C21.6699 12.9434 22.8594 14.127 24.3945 14.1328C25.9297 14.127 27.1191 12.9434 27.125 10.7578C27.1191 8.56641 25.9297 7.38281 24.3945 7.38281C22.8594 7.38281 21.6699 8.56641 21.6641 10.7578ZM30.5703 11.1797V15H29.5625V8.63672H30.5352V9.63281H30.6172C30.916 8.98242 31.5137 8.55469 32.4805 8.55469C33.7695 8.55469 34.6309 9.33984 34.625 10.957V15H33.6172V11.0273C33.6172 10.043 33.0781 9.45703 32.1758 9.45703C31.25 9.45703 30.5703 10.0781 30.5703 11.1797ZM39.3828 15V6.51562H42.2656C44.252 6.51562 45.1602 7.69922 45.1602 9.21094C45.1602 10.7168 44.252 11.918 42.2773 11.918H40.4375V15H39.3828ZM40.4375 10.9805H42.2305C43.584 10.9805 44.1113 10.2188 44.1172 9.21094C44.1113 8.19727 43.584 7.45312 42.2188 7.45312H40.4375V10.9805ZM46.5078 15V8.63672H47.4805V9.60938H47.5508C47.7793 8.96484 48.4414 8.53711 49.1914 8.53125C49.3438 8.53711 49.6016 8.54297 49.7188 8.55469V9.57422C49.6426 9.55664 49.373 9.50391 49.1094 9.50391C48.1953 9.50391 47.5156 10.1367 47.5156 10.9922V15H46.5078ZM53.0938 15.1289C51.3594 15.1348 50.1875 13.8223 50.1875 11.8477C50.1875 9.86133 51.3594 8.55469 53.0938 8.55469C54.8223 8.55469 55.9824 9.86133 55.9766 11.8477C55.9824 13.8223 54.8223 15.1348 53.0938 15.1289ZM51.1953 11.8477C51.2012 13.1191 51.7988 14.2383 53.0938 14.2383C54.377 14.2383 54.9688 13.1191 54.9688 11.8477C54.9688 10.582 54.377 9.44531 53.0938 9.44531C51.7988 9.44531 51.2012 10.582 51.1953 11.8477ZM59.8789 17.5195C58.3379 17.5195 57.2949 16.8457 57.1836 15.668H58.2383C58.373 16.3184 58.9766 16.6406 59.8789 16.6406C60.9688 16.6406 61.6367 16.166 61.6367 15.1172V13.8281H61.5547C61.3379 14.1797 60.9336 14.9004 59.7031 14.9062C58.1562 14.9004 56.9961 13.7344 56.9961 11.7305C56.9961 9.77344 58.1152 8.55469 59.7148 8.55469C60.9512 8.55469 61.3496 9.30469 61.5781 9.64453H61.6602V8.63672H62.6445V15.1758C62.6387 16.8164 61.4316 17.5195 59.8789 17.5195ZM58.0156 11.7656C58.0156 13.084 58.6367 14.0039 59.8438 14.0039C61.0098 14.0039 61.6543 13.166 61.6602 11.7656C61.6543 10.4004 61.0273 9.45703 59.8438 9.45703C58.6191 9.45703 58.0156 10.4824 58.0156 11.7656ZM64.25 15V8.63672H65.2227V9.60938H65.293C65.5215 8.96484 66.1836 8.53711 66.9336 8.53125C67.0859 8.53711 67.3438 8.54297 67.4609 8.55469V9.57422C67.3848 9.55664 67.1152 9.50391 66.8516 9.50391C65.9375 9.50391 65.2578 10.1367 65.2578 10.9922V15H64.25ZM70.9062 15.1289C69.0664 15.1348 67.9297 13.8223 67.9297 11.8711C67.9297 9.91406 69.084 8.55469 70.8125 8.55469C72.1484 8.55469 73.5605 9.375 73.5547 11.7305V12.1523H68.9375C68.9902 13.5 69.7754 14.2383 70.9062 14.2383C71.668 14.2383 72.1484 13.9043 72.3828 13.5117H73.4609C73.1621 14.4785 72.2188 15.1348 70.9062 15.1289ZM68.9434 11.2969H72.5352C72.5293 10.2363 71.8613 9.44531 70.8125 9.44531C69.7109 9.44531 69.0137 10.3125 68.9434 11.2969ZM78.4062 10.2891C78.2656 9.76172 77.8613 9.41602 77.1172 9.41016C76.332 9.41602 75.7754 9.83789 75.7695 10.3711C75.7754 10.793 76.1152 11.0801 76.8594 11.2617L77.8086 11.4961C78.9453 11.7656 79.502 12.334 79.5078 13.2188C79.502 14.3203 78.6055 15.1348 77.0117 15.1289C75.582 15.1348 74.7324 14.4961 74.5625 13.3359H75.6172C75.7344 13.957 76.1855 14.2559 76.9883 14.25C77.8965 14.2559 78.4648 13.875 78.4648 13.2773C78.4648 12.8262 78.1426 12.5332 77.4219 12.3633L76.4609 12.1406C75.3535 11.8828 74.7617 11.2793 74.7617 10.4297C74.7617 9.33984 75.7168 8.55469 77.1172 8.55469C78.4355 8.55469 79.2617 9.25781 79.3906 10.2891H78.4062ZM84.3594 10.2891C84.2188 9.76172 83.8145 9.41602 83.0703 9.41016C82.2852 9.41602 81.7285 9.83789 81.7227 10.3711C81.7285 10.793 82.0684 11.0801 82.8125 11.2617L83.7617 11.4961C84.8984 11.7656 85.4551 12.334 85.4609 13.2188C85.4551 14.3203 84.5586 15.1348 82.9648 15.1289C81.5352 15.1348 80.6855 14.4961 80.5156 13.3359H81.5703C81.6875 13.957 82.1387 14.2559 82.9414 14.25C83.8496 14.2559 84.418 13.875 84.418 13.2773C84.418 12.8262 84.0957 12.5332 83.375 12.3633L82.4141 12.1406C81.3066 11.8828 80.7148 11.2793 80.7148 10.4297C80.7148 9.33984 81.6699 8.55469 83.0703 8.55469C84.3887 8.55469 85.2148 9.25781 85.3438 10.2891H84.3594Z" fill="#5534DA"/>
</svg>
