<svg width="23" height="22" viewBox="0 0 23 22" fill="none" xmlns="http://www.w3.org/2000/svg">
<rect width="23" height="22" rx="4" fill="#DBE6F7"/>
<path d="M10.2168 7.21875C10.2168 8.63672 11.2949 9.9375 12.8066 10.4531L12.3027 11.1797C11.1543 10.7578 10.2461 9.89648 9.78906 8.80664C9.34375 10.043 8.41211 10.998 7.19336 11.4727L6.70117 10.7344C8.25977 10.1543 9.30859 8.75977 9.31445 7.14844V6.07031H10.2168V7.21875ZM8.08398 14.0273C8.08984 12.8379 9.39648 12.1406 11.541 12.1406C13.6797 12.1406 14.9746 12.8379 14.9746 14.0273C14.9746 15.2402 13.6797 15.9258 11.541 15.9258C9.39648 15.9258 8.08984 15.2402 8.08398 14.0273ZM9.00977 14.0273C8.99805 14.7656 9.9707 15.1934 11.541 15.1992C13.1172 15.1934 14.0781 14.7656 14.084 14.0273C14.0781 13.3184 13.1172 12.8789 11.541 12.8789C9.9707 12.8789 8.99805 13.3184 9.00977 14.0273ZM13.9668 11.8711V5.53125H14.8809V8.25H16.4512V9.02344H14.8809V11.8711H13.9668Z" fill="#4981D5"/>
</svg>
